<mxfile host="app.diagrams.net" modified="2021-09-22T07:05:38.875Z" agent="5.0 (Windows NT 10.0; Win64; x64) AppleWebKit/537.36 (KHTML, like Gecko) Chrome/93.0.4577.82 Safari/537.36" etag="RRXuEmO_k31FhThndQCT" version="15.2.9" type="github">
  <diagram id="Sj6pdQlYKBSp2q4my-Ob" name="Page-1">
    <mxGraphModel dx="1422" dy="762" grid="1" gridSize="10" guides="1" tooltips="1" connect="1" arrows="1" fold="1" page="1" pageScale="1" pageWidth="1654" pageHeight="2336" math="0" shadow="0">
      <root>
        <mxCell id="0" />
        <mxCell id="1" parent="0" />
        <mxCell id="kBCQWr7wbv03_cp4oLxc-1" value="Пользователь" style="shape=umlActor;verticalLabelPosition=bottom;verticalAlign=top;html=1;outlineConnect=0;" vertex="1" parent="1">
          <mxGeometry x="360" y="350" width="50" height="100" as="geometry" />
        </mxCell>
        <mxCell id="kBCQWr7wbv03_cp4oLxc-2" value="Вход в систему" style="ellipse;whiteSpace=wrap;html=1;" vertex="1" parent="1">
          <mxGeometry x="720" y="200" width="120" height="80" as="geometry" />
        </mxCell>
        <mxCell id="kBCQWr7wbv03_cp4oLxc-3" value="Растение" style="shape=umlActor;verticalLabelPosition=bottom;verticalAlign=top;html=1;outlineConnect=0;" vertex="1" parent="1">
          <mxGeometry x="1160" y="770" width="50" height="90" as="geometry" />
        </mxCell>
        <mxCell id="kBCQWr7wbv03_cp4oLxc-4" value="" style="endArrow=none;html=1;entryX=0;entryY=0.5;entryDx=0;entryDy=0;" edge="1" parent="1" target="kBCQWr7wbv03_cp4oLxc-2">
          <mxGeometry width="50" height="50" relative="1" as="geometry">
            <mxPoint x="430" y="400" as="sourcePoint" />
            <mxPoint x="760" y="320" as="targetPoint" />
          </mxGeometry>
        </mxCell>
        <mxCell id="kBCQWr7wbv03_cp4oLxc-6" value="Просмотр данных" style="ellipse;whiteSpace=wrap;html=1;" vertex="1" parent="1">
          <mxGeometry x="720" y="300" width="120" height="80" as="geometry" />
        </mxCell>
        <mxCell id="kBCQWr7wbv03_cp4oLxc-7" value="Просмотр уведомлений" style="ellipse;whiteSpace=wrap;html=1;" vertex="1" parent="1">
          <mxGeometry x="720" y="410" width="120" height="80" as="geometry" />
        </mxCell>
        <mxCell id="kBCQWr7wbv03_cp4oLxc-8" value="Wi-fi модуль" style="ellipse;whiteSpace=wrap;html=1;" vertex="1" parent="1">
          <mxGeometry x="1190" y="500" width="120" height="80" as="geometry" />
        </mxCell>
        <mxCell id="kBCQWr7wbv03_cp4oLxc-9" value="" style="endArrow=none;html=1;entryX=0;entryY=0.5;entryDx=0;entryDy=0;" edge="1" parent="1" target="kBCQWr7wbv03_cp4oLxc-6">
          <mxGeometry width="50" height="50" relative="1" as="geometry">
            <mxPoint x="430" y="410" as="sourcePoint" />
            <mxPoint x="730" y="250" as="targetPoint" />
          </mxGeometry>
        </mxCell>
        <mxCell id="kBCQWr7wbv03_cp4oLxc-10" value="" style="endArrow=none;html=1;entryX=0;entryY=0.5;entryDx=0;entryDy=0;" edge="1" parent="1" target="kBCQWr7wbv03_cp4oLxc-7">
          <mxGeometry width="50" height="50" relative="1" as="geometry">
            <mxPoint x="430" y="420" as="sourcePoint" />
            <mxPoint x="740" y="260" as="targetPoint" />
          </mxGeometry>
        </mxCell>
        <mxCell id="kBCQWr7wbv03_cp4oLxc-11" value="Базовое программное обеспечение" style="ellipse;whiteSpace=wrap;html=1;" vertex="1" parent="1">
          <mxGeometry x="1110" y="300" width="120" height="80" as="geometry" />
        </mxCell>
        <mxCell id="kBCQWr7wbv03_cp4oLxc-12" value="" style="endArrow=classic;html=1;entryX=1;entryY=0.5;entryDx=0;entryDy=0;exitX=0;exitY=0;exitDx=0;exitDy=0;dashed=1;" edge="1" parent="1" source="kBCQWr7wbv03_cp4oLxc-11" target="kBCQWr7wbv03_cp4oLxc-2">
          <mxGeometry width="50" height="50" relative="1" as="geometry">
            <mxPoint x="780" y="500" as="sourcePoint" />
            <mxPoint x="830" y="450" as="targetPoint" />
          </mxGeometry>
        </mxCell>
        <mxCell id="kBCQWr7wbv03_cp4oLxc-15" value="&lt;font style=&quot;font-size: 16px&quot;&gt;include&lt;/font&gt;" style="edgeLabel;html=1;align=center;verticalAlign=middle;resizable=0;points=[];" vertex="1" connectable="0" parent="kBCQWr7wbv03_cp4oLxc-12">
          <mxGeometry x="0.2848" y="-1" relative="1" as="geometry">
            <mxPoint x="27" as="offset" />
          </mxGeometry>
        </mxCell>
        <mxCell id="kBCQWr7wbv03_cp4oLxc-13" value="" style="endArrow=classic;html=1;entryX=1;entryY=0.5;entryDx=0;entryDy=0;exitX=0;exitY=0.5;exitDx=0;exitDy=0;dashed=1;" edge="1" parent="1" source="kBCQWr7wbv03_cp4oLxc-11" target="kBCQWr7wbv03_cp4oLxc-6">
          <mxGeometry width="50" height="50" relative="1" as="geometry">
            <mxPoint x="1137.5735931288073" y="321.7157287525381" as="sourcePoint" />
            <mxPoint x="850" y="250" as="targetPoint" />
          </mxGeometry>
        </mxCell>
        <mxCell id="kBCQWr7wbv03_cp4oLxc-16" value="&lt;font style=&quot;font-size: 16px&quot;&gt;include&lt;/font&gt;" style="edgeLabel;html=1;align=center;verticalAlign=middle;resizable=0;points=[];" vertex="1" connectable="0" parent="kBCQWr7wbv03_cp4oLxc-13">
          <mxGeometry x="0.5185" relative="1" as="geometry">
            <mxPoint x="55" as="offset" />
          </mxGeometry>
        </mxCell>
        <mxCell id="kBCQWr7wbv03_cp4oLxc-14" value="" style="endArrow=classic;html=1;entryX=1;entryY=0.5;entryDx=0;entryDy=0;exitX=0;exitY=1;exitDx=0;exitDy=0;dashed=1;" edge="1" parent="1" source="kBCQWr7wbv03_cp4oLxc-11" target="kBCQWr7wbv03_cp4oLxc-7">
          <mxGeometry width="50" height="50" relative="1" as="geometry">
            <mxPoint x="1147.5735931288073" y="331.7157287525381" as="sourcePoint" />
            <mxPoint x="860" y="260" as="targetPoint" />
          </mxGeometry>
        </mxCell>
        <mxCell id="kBCQWr7wbv03_cp4oLxc-17" value="&lt;font style=&quot;font-size: 16px&quot;&gt;include&lt;/font&gt;" style="edgeLabel;html=1;align=center;verticalAlign=middle;resizable=0;points=[];spacing=5;" vertex="1" connectable="0" parent="kBCQWr7wbv03_cp4oLxc-14">
          <mxGeometry x="0.4964" y="-1" relative="1" as="geometry">
            <mxPoint x="48" y="-18" as="offset" />
          </mxGeometry>
        </mxCell>
        <mxCell id="kBCQWr7wbv03_cp4oLxc-19" value="" style="endArrow=classic;html=1;dashed=1;entryX=0.5;entryY=1;entryDx=0;entryDy=0;exitX=0.5;exitY=0;exitDx=0;exitDy=0;" edge="1" parent="1" source="kBCQWr7wbv03_cp4oLxc-8" target="kBCQWr7wbv03_cp4oLxc-11">
          <mxGeometry width="50" height="50" relative="1" as="geometry">
            <mxPoint x="660" y="520" as="sourcePoint" />
            <mxPoint x="590" y="780" as="targetPoint" />
          </mxGeometry>
        </mxCell>
        <mxCell id="kBCQWr7wbv03_cp4oLxc-24" value="&lt;span style=&quot;font-size: 16px&quot;&gt;include&lt;/span&gt;" style="edgeLabel;html=1;align=center;verticalAlign=middle;resizable=0;points=[];" vertex="1" connectable="0" parent="kBCQWr7wbv03_cp4oLxc-19">
          <mxGeometry x="0.3885" y="-3" relative="1" as="geometry">
            <mxPoint x="13" y="25" as="offset" />
          </mxGeometry>
        </mxCell>
        <mxCell id="kBCQWr7wbv03_cp4oLxc-20" value="Датчики" style="ellipse;whiteSpace=wrap;html=1;" vertex="1" parent="1">
          <mxGeometry x="980" y="520" width="120" height="80" as="geometry" />
        </mxCell>
        <mxCell id="kBCQWr7wbv03_cp4oLxc-21" value="" style="endArrow=classic;html=1;dashed=1;entryX=0;entryY=0.5;entryDx=0;entryDy=0;exitX=1;exitY=0.5;exitDx=0;exitDy=0;" edge="1" parent="1" source="kBCQWr7wbv03_cp4oLxc-20" target="kBCQWr7wbv03_cp4oLxc-8">
          <mxGeometry width="50" height="50" relative="1" as="geometry">
            <mxPoint x="660" y="520" as="sourcePoint" />
            <mxPoint x="710" y="470" as="targetPoint" />
          </mxGeometry>
        </mxCell>
        <mxCell id="kBCQWr7wbv03_cp4oLxc-23" value="&lt;span style=&quot;font-size: 16px&quot;&gt;include&lt;/span&gt;" style="edgeLabel;html=1;align=center;verticalAlign=middle;resizable=0;points=[];" vertex="1" connectable="0" parent="kBCQWr7wbv03_cp4oLxc-21">
          <mxGeometry x="-0.4941" y="-1" relative="1" as="geometry">
            <mxPoint x="17" y="-6" as="offset" />
          </mxGeometry>
        </mxCell>
      </root>
    </mxGraphModel>
  </diagram>
</mxfile>
